<?xml version="1.0" encoding="UTF-8"?>
<!DOCTYPE svg PUBLIC "-//W3C//DTD SVG 1.1//EN" "http://www.w3.org/Graphics/SVG/1.1/DTD/svg11.dtd">
<svg xmlns="http://www.w3.org/2000/svg" version="1.1" width="500px" height="500px" style="shape-rendering:geometricPrecision; text-rendering:geometricPrecision; image-rendering:optimizeQuality; fill-rule:evenodd; clip-rule:evenodd" xmlns:xlink="http://www.w3.org/1999/xlink">
<g><path style="opacity:1" fill="#fe8524" d="M 305.5,65.5 C 321.224,162.258 336.224,259.258 350.5,356.5C 288.603,339.859 226.603,323.525 164.5,307.5C 163.791,306.596 162.791,306.263 161.5,306.5C 155.156,265.437 148.489,224.437 141.5,183.5C 195.864,143.811 250.531,104.478 305.5,65.5 Z"/></g>
<g><path style="opacity:1" fill="#9c4a83" d="M 427.5,56.5 C 440.237,57.6455 444.737,64.3121 441,76.5C 427.833,93 414.667,109.5 401.5,126C 385.9,130.066 379.733,124.232 383,108.5C 394.667,93.5 406.333,78.5 418,63.5C 420.529,60.1151 423.696,57.7818 427.5,56.5 Z"/></g>
<g><path style="opacity:1" fill="#9c4a83" d="M 464.5,162.5 C 478.821,160.322 484.988,166.322 483,180.5C 481.5,183.333 479.333,185.5 476.5,187C 452.208,191.715 427.874,196.215 403.5,200.5C 391.17,197.505 387.67,190.172 393,178.5C 394.579,176.959 396.413,175.792 398.5,175C 420.645,170.923 442.645,166.756 464.5,162.5 Z"/></g>
<g><path style="opacity:1" fill="#9c4983" d="M 350.5,356.5 C 336.224,259.258 321.224,162.258 305.5,65.5C 308.486,49.1694 317.82,44.0027 333.5,50C 338.242,53.6491 340.742,58.4824 341,64.5C 355.92,159.442 370.42,254.442 384.5,349.5C 382.44,364.381 374.107,369.881 359.5,366C 354.944,364.278 351.944,361.111 350.5,356.5 Z"/></g>
<g><path style="opacity:1" fill="#feb233" d="M 141.5,183.5 C 148.489,224.437 155.156,265.437 161.5,306.5C 138.106,309.121 114.773,312.287 91.5,316C 89.563,316.122 88.2297,316.955 87.5,318.5C 56.6145,320.48 34.1145,307.813 20,280.5C 10.1121,253.263 15.2788,229.43 35.5,209C 44.1979,201.652 54.1979,196.986 65.5,195C 90.8302,191.056 116.164,187.223 141.5,183.5 Z"/></g>
<g><path style="opacity:1" fill="#9c4a83" d="M 415.5,245.5 C 419.44,245.758 423.107,246.924 426.5,249C 441.222,260.055 456.222,270.722 471.5,281C 476.607,285.998 477.773,291.832 475,298.5C 470.699,304.277 465.199,306.11 458.5,304C 442.5,292.667 426.5,281.333 410.5,270C 403.403,263.568 402.737,256.568 408.5,249C 410.925,247.787 413.259,246.621 415.5,245.5 Z"/></g>
<g><path style="opacity:1" fill="#16a198" d="M 161.5,306.5 C 162.791,306.263 163.791,306.596 164.5,307.5C 163.503,307.47 162.836,307.97 162.5,309C 164.582,316.83 166.582,324.664 168.5,332.5C 143.513,336.26 118.513,339.927 93.5,343.5C 91.0336,335.3 89.0336,326.967 87.5,318.5C 88.2297,316.955 89.563,316.122 91.5,316C 114.773,312.287 138.106,309.121 161.5,306.5 Z"/></g>
<g><path style="opacity:1" fill="#16ccb4" d="M 168.5,332.5 C 174.226,356.181 180.059,379.848 186,403.5C 189.583,428.492 179.083,443.992 154.5,450C 131.183,451.765 117.016,441.265 112,418.5C 105.927,393.454 99.7608,368.454 93.5,343.5C 118.513,339.927 143.513,336.26 168.5,332.5 Z"/></g>
</svg>
